<svg xmlns="http://www.w3.org/2000/svg" viewBox="0 0 125.91 104.92"><defs><style>.cls-1{fill:#e15344;}</style></defs><g id="Capa_2" data-name="Capa 2"><g id="Capa_1-2" data-name="Capa 1"><path id="Trazado_1092" data-name="Trazado 1092" class="cls-1" d="M115.2,38.4,100.84,4.77A7.87,7.87,0,0,0,93.61,0H32.32a7.87,7.87,0,0,0-7.23,4.77L10.72,38.4A18.38,18.38,0,0,0,0,55.09v21a7.89,7.89,0,0,0,7.87,7.86H10.5V97.05a7.89,7.89,0,0,0,7.87,7.87h10.5a7.9,7.9,0,0,0,7.87-7.87V83.94H89.2V97.05a7.89,7.89,0,0,0,7.87,7.87h10.5a7.88,7.88,0,0,0,7.86-7.87V83.94H118a7.89,7.89,0,0,0,7.87-7.86v-21A18.37,18.37,0,0,0,115.2,38.4ZM29.91,6.84a2.62,2.62,0,0,1,2.41-1.6H93.61A2.61,2.61,0,0,1,96,6.81l12.79,29.93c-.42,0-.84-.05-1.23-.05H18.37c-.41,0-.83,0-1.22.05Zm1.57,90.21a2.63,2.63,0,0,1-2.63,2.63H18.37a2.63,2.63,0,0,1-2.63-2.63V83.94H31.48Zm76.07,2.63H97.05a2.63,2.63,0,0,1-2.63-2.63V83.94h15.74V97.05h0a2.63,2.63,0,0,1-2.63,2.63Zm10.5-21H7.87a2.62,2.62,0,0,1-2.63-2.62v-21A13.11,13.11,0,0,1,18.35,42h89.2a13.11,13.11,0,0,1,13.11,13.1v21h0a2.62,2.62,0,0,1-2.62,2.62Z"/><path id="Trazado_1093" data-name="Trazado 1093" class="cls-1" d="M23.61,47.22A13.11,13.11,0,1,0,36.72,60.33,13.13,13.13,0,0,0,23.61,47.22Zm0,21a7.87,7.87,0,1,1,7.87-7.87A7.88,7.88,0,0,1,23.61,68.2Z"/><path id="Trazado_1094" data-name="Trazado 1094" class="cls-1" d="M102.32,47.22a13.11,13.11,0,1,0,13.11,13.11A13.12,13.12,0,0,0,102.32,47.22Zm0,21a7.87,7.87,0,1,1,7.86-7.87A7.89,7.89,0,0,1,102.32,68.2Z"/><path id="Trazado_1095" data-name="Trazado 1095" class="cls-1" d="M81.34,63H44.59a2.63,2.63,0,0,0,0,5.26H81.31a2.63,2.63,0,0,0,0-5.26Z"/><path id="Trazado_1096" data-name="Trazado 1096" class="cls-1" d="M81.34,52.46H44.59a2.64,2.64,0,0,0,0,5.27H81.31a2.64,2.64,0,0,0,2.63-2.64,2.61,2.61,0,0,0-2.59-2.63Z"/></g></g></svg>