<svg xmlns="http://www.w3.org/2000/svg" viewBox="0 0 185.14 115.3"><defs><style>.cls-1{fill:#e15344;}</style></defs><g id="Capa_2" data-name="Capa 2"><g id="Capa_1-2" data-name="Capa 1"><g id="Grupo_3672" data-name="Grupo 3672"><path id="Trazado_12632" data-name="Trazado 12632" class="cls-1" d="M146.65,38.11a40.91,40.91,0,0,0-15.25,3l-6.48-12.58v-20A2.88,2.88,0,0,0,123,5.9L107.76.18a2.84,2.84,0,0,0-2,5.31l.09,0,13.53,5v16.2H63.55V21.15h6.86a2.86,2.86,0,0,0,0-5.72H52.69a2.86,2.86,0,0,0,0,5.72h5.14V29L52.31,41A36.68,36.68,0,0,0,38.58,38.3,38.5,38.5,0,1,0,76.89,79.66H89.28a2.75,2.75,0,0,0,2.29-1.15l29.92-43.26,4.76,9a37.68,37.68,0,0,0-18.1,32.4,38.5,38.5,0,1,0,38.5-38.5ZM38.58,109.39a32.79,32.79,0,0,1,0-65.57,31.14,31.14,0,0,1,11.25,2.1L35.92,75.46v.19a1.66,1.66,0,0,0-.19.95v.2a1.66,1.66,0,0,0,.19,1v.19c0,.19,0,.19.19.38,0,.19.19.19.38.38v.19c.19.19.57.38.76.57h.19a1.65,1.65,0,0,0,1,.19H71a32.43,32.43,0,0,1-32.4,29.74ZM43,73.75,55,48.4a32.57,32.57,0,0,1,16.2,25.35Zm44.79,0H76.7A38.76,38.76,0,0,0,57.26,43.06L62.41,32.2h53.93Zm58.7,35.64A32.74,32.74,0,0,1,128.92,49l15.06,29a3,3,0,0,0,2.48,1.52,3.28,3.28,0,0,0,1.33-.38,2.82,2.82,0,0,0,1.14-3.81l-15.05-29a35,35,0,0,1,12.58-2.47,32.78,32.78,0,0,1,0,65.56Z"/></g></g></g></svg>