<svg xmlns="http://www.w3.org/2000/svg" viewBox="0 0 148.01 118.41"><defs><style>.cls-1{fill:#e15344;}</style></defs><g id="Capa_2" data-name="Capa 2"><g id="Capa_1-2" data-name="Capa 1"><path id="Trazado_12619" data-name="Trazado 12619" class="cls-1" d="M140.6,34.54h-2.47V24.67a7.4,7.4,0,0,0-9.86-7V7.4a7.42,7.42,0,0,0-7.4-7.4h-4.94a7.4,7.4,0,0,0-7.4,7.4V34.53h-7.82A7.39,7.39,0,0,0,91.28,30l-.28.11a7.4,7.4,0,0,0-9.07-5.21c-.27.08-.53.17-.79.27a12.58,12.58,0,0,0-24.41,1.94V29.6H54.27a7.4,7.4,0,0,0-7,4.93H39.47V7.4A7.4,7.4,0,0,0,32.07,0H27.14a7.4,7.4,0,0,0-7.4,7.4V17.69a7.39,7.39,0,0,0-9.87,7v9.87H7.4A7.4,7.4,0,0,0,0,41.94v4.93a7.4,7.4,0,0,0,7.4,7.4H9.87v9.87a7.41,7.41,0,0,0,9.87,7V81.41a7.41,7.41,0,0,0,7.4,7.4h4.93a7.41,7.41,0,0,0,7.4-7.4V54.27h7.4v7.4A2.45,2.45,0,0,0,47.28,63l9.46,14.18v38.72a2.47,2.47,0,0,0,2.46,2.47H93.74a2.48,2.48,0,0,0,2.47-2.47V76.87L101,62.45a2.28,2.28,0,0,0,.13-.78v-7.4h7.4V81.41a7.41,7.41,0,0,0,7.4,7.4h4.93a7.41,7.41,0,0,0,7.4-7.4V71.12a7.39,7.39,0,0,0,9.87-7V54.28h2.47a7.41,7.41,0,0,0,7.4-7.4V41.94A7.4,7.4,0,0,0,140.6,34.54Zm-46.87,0A2.47,2.47,0,0,1,96.2,37v9.87a2.47,2.47,0,0,1-4.93.15V37a2.46,2.46,0,0,1,2.46-2.46ZM83.86,29.6a2.48,2.48,0,0,1,2.47,2.47v14.8a2.47,2.47,0,1,1-4.93,0h0V32.07a2.47,2.47,0,0,1,2.46-2.47ZM74,24.67a2.47,2.47,0,0,1,2.47,2.47V46.87a2.47,2.47,0,1,1-4.93.15V27.14A2.47,2.47,0,0,1,74,24.67h0Zm-7.4,22.2a2.47,2.47,0,1,1-4.93,0h0V44.4h2.48A7.45,7.45,0,0,0,66.61,44ZM61.66,27.13a2.47,2.47,0,0,1,4.93,0V29.6H61.66ZM7.39,49.33a2.47,2.47,0,0,1-2.47-2.46V41.93a2.47,2.47,0,0,1,2.47-2.46H9.86v9.87ZM17.26,66.6a2.48,2.48,0,0,1-2.47-2.47V24.66a2.47,2.47,0,0,1,4.94,0V64.13a2.47,2.47,0,0,1-2.47,2.47ZM34.53,81.4a2.48,2.48,0,0,1-2.47,2.47H27.13a2.48,2.48,0,0,1-2.47-2.47V7.4a2.48,2.48,0,0,1,2.47-2.47h4.93A2.48,2.48,0,0,1,34.53,7.4Zm4.93-32.07V39.46h7.4v9.87ZM96.2,61.27,91.39,75.69a2.55,2.55,0,0,0-.13.78v37H61.66V83.86h7.4a2.47,2.47,0,1,0,.14-4.93H61.66V76.46a2.48,2.48,0,0,0-.42-1.37L51.79,60.91V37a2.46,2.46,0,0,1,2.46-2.46H66.59V37a2.48,2.48,0,0,1-2.47,2.47H59.19a2.47,2.47,0,0,0-2.47,2.47v9.86a2.47,2.47,0,0,0,2.47,2.47A12.34,12.34,0,0,1,71.52,66.6a2.47,2.47,0,0,0,4.94.14V66.6a17.25,17.25,0,0,0-5.2-12.34H96.19Zm4.51-11.94a7.35,7.35,0,0,0,.42-2.46v-7.4h7.4v9.87ZM123.33,81.4a2.47,2.47,0,0,1-2.46,2.47h-4.94a2.48,2.48,0,0,1-2.47-2.47V7.4a2.48,2.48,0,0,1,2.47-2.47h4.94a2.47,2.47,0,0,1,2.46,2.47Zm9.87-17.27a2.47,2.47,0,0,1-4.93.15V24.66a2.47,2.47,0,1,1,4.93-.15V64.13Zm9.87-17.26a2.46,2.46,0,0,1-2.47,2.46h-2.46V39.46h2.46a2.47,2.47,0,0,1,2.47,2.47h0Z"/></g></g></svg>