<svg xmlns="http://www.w3.org/2000/svg" viewBox="0 0 152.53 128.35"><defs><style>.cls-1{fill:#e15344;}</style></defs><g id="Capa_2" data-name="Capa 2"><g id="Capa_1-2" data-name="Capa 1"><g id="Grupo_3657" data-name="Grupo 3657"><g id="Grupo_3656" data-name="Grupo 3656"><path id="Trazado_12624" data-name="Trazado 12624" class="cls-1" d="M150.25,82.7a15.48,15.48,0,0,0-10.65,4.1,11.38,11.38,0,0,1-15.7,0,15.48,15.48,0,0,0-10.65-4.1A14.51,14.51,0,0,0,105.1,85a2.26,2.26,0,0,0,2.43,3.82,9.82,9.82,0,0,1,5.72-1.57,11,11,0,0,1,7.85,3.14,15.86,15.86,0,0,0,21.29,0,11,11,0,0,1,7.86-3.14,2.27,2.27,0,0,0,0-4.53Z"/></g></g><g id="Grupo_3659" data-name="Grupo 3659"><g id="Grupo_3658" data-name="Grupo 3658"><path id="Trazado_12625" data-name="Trazado 12625" class="cls-1" d="M16.25,89a17.69,17.69,0,0,1-3.32-2.23A15.48,15.48,0,0,0,2.28,82.7a2.27,2.27,0,0,0,0,4.53h0a11,11,0,0,1,7.85,3.14,22,22,0,0,0,4.19,2.76,2.29,2.29,0,0,0,1,.21,2.26,2.26,0,0,0,1-4.31Z"/></g></g><g id="Grupo_3661" data-name="Grupo 3661"><g id="Grupo_3660" data-name="Grupo 3660"><path id="Trazado_12626" data-name="Trazado 12626" class="cls-1" d="M115.76,0A28.79,28.79,0,0,0,87,28.76v22H37.64v-22a15.17,15.17,0,0,1,30.34,0v.68a6.8,6.8,0,0,0,13.6,0h0v-.68a28.76,28.76,0,0,0-57.52,0v71.68a2.27,2.27,0,1,0,4.53,0V28.76a24.24,24.24,0,0,1,48.47,0v.68a2.27,2.27,0,1,1-4.54,0v-.68a19.7,19.7,0,1,0-39.4,0V94.87a2.27,2.27,0,1,0,4.53,0V91.49H87v9a2.27,2.27,0,0,0,4.53,0V28.76a24.24,24.24,0,0,1,48.47,0h0v.68a2.27,2.27,0,0,1-4.53.14v-.82a19.7,19.7,0,0,0-39.4,0V37a2.26,2.26,0,1,0,4.52.14.33.33,0,0,0,0-.14V28.76a15.18,15.18,0,0,1,30.35,0v.68a6.8,6.8,0,1,0,13.59.54V28.76A28.79,28.79,0,0,0,115.76,0ZM37.63,55.26H87v5H37.64ZM87,77.45H55.6a2.27,2.27,0,0,0,0,4.53H87v5H37.64V82H48.05a2.27,2.27,0,1,0,0-4.53H37.64V64.77H87Z"/></g></g><g id="Grupo_3663" data-name="Grupo 3663"><g id="Grupo_3662" data-name="Grupo 3662"><path id="Trazado_12627" data-name="Trazado 12627" class="cls-1" d="M98.33,42.31a2.27,2.27,0,0,0-2.27,2.26h0v56.58a2.27,2.27,0,1,0,4.53.14V44.57a2.26,2.26,0,0,0-2.26-2.26Z"/></g></g><g id="Grupo_3665" data-name="Grupo 3665"><g id="Grupo_3664" data-name="Grupo 3664"><path id="Trazado_12628" data-name="Trazado 12628" class="cls-1" d="M150.25,99.64a15.46,15.46,0,0,0-10.65,4.1,11.38,11.38,0,0,1-15.7,0,15.86,15.86,0,0,0-21.29,0,11.38,11.38,0,0,1-15.7,0,15.86,15.86,0,0,0-21.29,0,11.38,11.38,0,0,1-15.7,0,15.86,15.86,0,0,0-21.29,0,11.38,11.38,0,0,1-15.7,0,15.48,15.48,0,0,0-10.64-4.1,2.27,2.27,0,1,0,0,4.53,11,11,0,0,1,7.85,3.14,15.85,15.85,0,0,0,21.28,0,11.39,11.39,0,0,1,15.71,0,15.85,15.85,0,0,0,21.28,0,11.38,11.38,0,0,1,15.7,0,15.86,15.86,0,0,0,21.29,0,11.39,11.39,0,0,1,15.71,0,15.85,15.85,0,0,0,21.28,0,11,11,0,0,1,7.86-3.14,2.27,2.27,0,0,0,0-4.53Z"/></g></g><g id="Grupo_3667" data-name="Grupo 3667"><g id="Grupo_3666" data-name="Grupo 3666"><path id="Trazado_12629" data-name="Trazado 12629" class="cls-1" d="M150.25,116.57a15.48,15.48,0,0,0-10.65,4.1,11.38,11.38,0,0,1-15.7,0,15.86,15.86,0,0,0-21.29,0,11.38,11.38,0,0,1-15.7,0,15.86,15.86,0,0,0-21.29,0,11.38,11.38,0,0,1-15.7,0,15.48,15.48,0,0,0-10.65-4.1,2.27,2.27,0,0,0,0,4.53,11,11,0,0,1,7.86,3.14,15.85,15.85,0,0,0,21.28,0,11.38,11.38,0,0,1,15.7,0,15.86,15.86,0,0,0,21.29,0,11.38,11.38,0,0,1,15.7,0,15.86,15.86,0,0,0,21.29,0,11,11,0,0,1,7.86-3.14,2.27,2.27,0,0,0,0-4.53Z"/></g></g><g id="Grupo_3669" data-name="Grupo 3669"><g id="Grupo_3668" data-name="Grupo 3668"><path id="Trazado_12630" data-name="Trazado 12630" class="cls-1" d="M31.81,121.06a2.26,2.26,0,0,0-3.18-.39,11.38,11.38,0,0,1-15.7,0,15.48,15.48,0,0,0-10.64-4.1,2.27,2.27,0,1,0,0,4.53h0a11.12,11.12,0,0,1,7.85,3.14,15.85,15.85,0,0,0,21.28,0,2.26,2.26,0,0,0,.39-3.18Z"/></g></g></g></g></svg>