<svg xmlns="http://www.w3.org/2000/svg" viewBox="0 0 127.91 127.92"><defs><style>.cls-1{fill:#e15344;}</style></defs><g id="Capa_2" data-name="Capa 2"><g id="Capa_1-2" data-name="Capa 1"><g id="Grupo_3644" data-name="Grupo 3644"><path id="Trazado_12618" data-name="Trazado 12618" class="cls-1" d="M127.91,82.36V59.69h-2.72a31.28,31.28,0,0,0-21.51,8.53H66.08V34.11h54.17a3.4,3.4,0,0,0,1.48-6.45L64.87.21A2.16,2.16,0,0,0,63,.21L6.15,27.66a3.39,3.39,0,0,0,1.48,6.45H61.8V68.22H24.22a31.25,31.25,0,0,0-21.5-8.53H0V82.36A11.44,11.44,0,0,0,10.09,93.71l-7.9,31.55a2.13,2.13,0,0,0,4.14,1L14,95.75l9.58,30.66a2.13,2.13,0,1,0,4.07-1.27h0L17.83,93.81H34.11V91.09A31,31,0,0,0,32.46,81h18.7v8.52h6.4V106.6a17.05,17.05,0,0,1-17.05,17.05H36.25a2.13,2.13,0,1,0,0,4.26H91.68a2.13,2.13,0,0,0,0-4.26H87.41a17.05,17.05,0,0,1-17-17.05h0V89.54h6.39V81H95.46a31,31,0,0,0-1.65,10.07v2.72h14.32l-7.86,31.46a2.13,2.13,0,0,0,4.13,1L112,95.76l9.58,30.66a2.13,2.13,0,1,0,4.07-1.27l-9.8-31.34h.59a11.45,11.45,0,0,0,11.43-11.45ZM64,4.5l52.51,25.35h-105Zm-49,85H11.44a7.18,7.18,0,0,1-7.18-7.17h0V64a27.05,27.05,0,0,1,17.38,7.65l.22.21a27.22,27.22,0,0,1,5.48,7.91l.53,1.15a26.9,26.9,0,0,1,1.92,8.62Zm57.55-4.27h-6.4v21.32a21.29,21.29,0,0,0,8.52,17.06H53.29a21.29,21.29,0,0,0,8.52-17.06V85.27H55.42V81h17Zm4.26-8.52H30.65A31.32,31.32,0,0,0,28,72.48H99.9a31.25,31.25,0,0,0-2.64,4.27ZM100,80.91l.53-1.15A27.22,27.22,0,0,1,106,71.85l.22-.22A27,27,0,0,1,123.64,64V82.35a7.17,7.17,0,0,1-7.18,7.17H98.1a27.07,27.07,0,0,1,1.93-8.6Z"/></g></g></g></svg>