<svg xmlns="http://www.w3.org/2000/svg" viewBox="0 0 126.64 129.75"><defs><style>.cls-1{fill:#e15344;}</style></defs><g id="Capa_2" data-name="Capa 2"><g id="Capa_1-2" data-name="Capa 1"><g id="Grupo_3648" data-name="Grupo 3648"><g id="Grupo_3647" data-name="Grupo 3647"><path id="Trazado_12620" data-name="Trazado 12620" class="cls-1" d="M125.61,10.52,110.48.43a2.3,2.3,0,0,0-3.18.64,2.75,2.75,0,0,0-.17.29L95.51,25.94H56.38A28.24,28.24,0,1,0,28.24,56.47,27.93,27.93,0,0,0,43.43,52L70.48,87.65V112l-21,13.55a2.29,2.29,0,0,0,1.25,4.22h44a2.3,2.3,0,0,0,1.25-4.22L75.07,112V87.65L87.84,70.84a2.29,2.29,0,0,0-3.65-2.77l-11.41,15L39,38.6H61.05a2.29,2.29,0,1,0,0-4.58H55.87a27.67,27.67,0,0,0,.5-3.49h37L91.69,34h-23a2.29,2.29,0,0,0,0,4.58h37.87L89,61.71a2.29,2.29,0,1,0,3.65,2.77h0l26.48-34.86a2.3,2.3,0,0,0-1.83-3.68H100.59l9.56-20.22,12.92,8.62a2.3,2.3,0,0,0,2.55-3.82h0ZM72.78,116,87,125.17H58.53ZM51.18,34H35.51l-2.64-3.48H51.78A22.81,22.81,0,0,1,51.18,34ZM28.24,26A2.3,2.3,0,0,0,26,28.24a2.26,2.26,0,0,0,.47,1.39L40.66,48.37a23.37,23.37,0,0,1-12.41,3.51A23.65,23.65,0,1,1,51.78,25.94Zm84.46,4.59L110.06,34H96.78l1.64-3.48Z"/></g></g><g id="Grupo_3650" data-name="Grupo 3650"><g id="Grupo_3649" data-name="Grupo 3649"><path id="Trazado_12621" data-name="Trazado 12621" class="cls-1" d="M58.38,45.55a2.29,2.29,0,1,0-.63,3.18l.31-.25A2.33,2.33,0,0,0,58.38,45.55Z"/></g></g><g id="Grupo_3652" data-name="Grupo 3652"><g id="Grupo_3651" data-name="Grupo 3651"><path id="Trazado_12622" data-name="Trazado 12622" class="cls-1" d="M73.51,59.3a2.29,2.29,0,1,0-.64,3.18,2,2,0,0,0,.39-.33A2.31,2.31,0,0,0,73.51,59.3Z"/></g></g><g id="Grupo_3654" data-name="Grupo 3654"><g id="Grupo_3653" data-name="Grupo 3653"><path id="Trazado_12623" data-name="Trazado 12623" class="cls-1" d="M86.7,49.22a2.29,2.29,0,1,0-.63,3.18l.22-.16A2.32,2.32,0,0,0,86.7,49.22Z"/></g></g></g></g></svg>