<svg xmlns="http://www.w3.org/2000/svg" viewBox="0 0 155.44 129.41"><defs><style>.cls-1{fill:#e15344;}</style></defs><g id="Capa_2" data-name="Capa 2"><g id="Capa_1-2" data-name="Capa 1"><path id="Trazado_12631" data-name="Trazado 12631" class="cls-1" d="M155,38.15a40.81,40.81,0,0,0-6.5-12.3,2.28,2.28,0,1,0-3.67,2.7l.05.07a36.15,36.15,0,0,1,5.78,10.92,5.44,5.44,0,0,1-5.17,7.09H128.2a5.45,5.45,0,0,1-5.41-5c0-.4-.06-.8-.1-1.21v-.06c-.87-10.09-3.64-22.27-11.27-30.05a52.26,52.26,0,0,1,26.22,11,2.28,2.28,0,0,0,2.87-3.55h0A57.74,57.74,0,0,0,106.24,5.3v-3a2.28,2.28,0,0,0-4.56,0v3a58.2,58.2,0,0,0-30.36,9.52A45.25,45.25,0,0,0,53,38.15a10,10,0,0,0,6.47,12.56,9.81,9.81,0,0,0,3,.48H79.72a10,10,0,0,0,7.72-3.67l.37.44a10,10,0,0,0,7.1,3.23V86.61l-5.34-5.34a13.25,13.25,0,0,0-9.43-3.91H37.47L16.84,56.73a9.92,9.92,0,0,0-14,14l36,36a2.28,2.28,0,1,0,3.31-3.14L42,103.5,29.94,91.44l.55,0H45.12l8.7,8.7A5.88,5.88,0,0,0,58,101.88H90.23l10.5,10.5.24.22H58c-.34,0-.67,0-1,0h-.23a16.53,16.53,0,0,1-7.21-2.26,2.28,2.28,0,1,0-2.33,3.92,20.94,20.94,0,0,0,6.19,2.44l-3.21,7.18a4,4,0,0,0,3.61,5.57h7.52a4.79,4.79,0,0,0,4.47-3l3.69-9.21h51.37l3.68,9.21a4.82,4.82,0,0,0,4.48,3h7.54a3.95,3.95,0,0,0,3.61-5.57l-3-6.68h3.31a9.92,9.92,0,0,0,0-19.83H113V51.19A10,10,0,0,0,120.1,48c.13-.14.26-.28.38-.43a10,10,0,0,0,7.72,3.67h17.25a10,10,0,0,0,10-10,10.1,10.1,0,0,0-.47-3ZM61.55,124.68a.25.25,0,0,1-.24.16H54.72l3.43-7.69h6.42ZM85.22,40.35v0c0,.41-.07.82-.1,1.22a5.44,5.44,0,0,1-5.41,5H62.45a5.43,5.43,0,0,1-5.17-7.09A40.74,40.74,0,0,1,73.84,18.61,52.83,52.83,0,0,1,96.5,10.28c-7.63,7.78-10.4,20-11.28,30.07ZM23.47,85,6,67.52a5.36,5.36,0,0,1,7.58-7.59L31,77.35h-.53a7.05,7.05,0,0,0-7,7.05l0,.55ZM58,97.32a1.29,1.29,0,0,1-.93-.39l-5.48-5.48H79.81l5.86,5.86Zm49.51,11.84a2.5,2.5,0,0,1-3.53,0h0L92.79,98h0l-10-10a3.77,3.77,0,0,0-2.67-1.1H30.5a2.5,2.5,0,1,1-.05-5H80.14a8.69,8.69,0,0,1,6.2,2.57l9.23,9.23h0l11.92,11.92a2.49,2.49,0,0,1,0,3.52Zm1-11.84h-2.82l-6.16-6.17v-40h9ZM129,124.84a.25.25,0,0,1-.24-.17l-3-7.52h6.41l3.44,7.69Zm11.47-23a5.36,5.36,0,1,1,0,10.72h-30a2.39,2.39,0,0,0,.23-.22,7,7,0,0,0,0-10l-.53-.53Zm-23.73-57a5.35,5.35,0,0,1-4,1.76H95.17a5.43,5.43,0,0,1-5.43-5.41c0-.15,0-.3,0-.46,1.62-18.92,8.36-27.1,14.19-30.61,5.83,3.51,12.57,11.69,14.19,30.62a5.32,5.32,0,0,1-1.39,4.1Z"/></g></g></svg>