<svg xmlns="http://www.w3.org/2000/svg" viewBox="0 0 474.72 98.69"><defs><style>.cls-1{fill:#3a4e56;}.cls-2{fill:#47b195;}.cls-3{fill:#80872e;}.cls-4{fill:#4f331b;}.cls-5{fill:#f3a642;}.cls-6{fill:#c7463c;}</style></defs><g id="Capa_2" data-name="Capa 2"><g id="Capa_1-2" data-name="Capa 1"><g id="Grupo_490" data-name="Grupo 490"><g id="Grupo_489" data-name="Grupo 489"><path id="Trazado_642" data-name="Trazado 642" class="cls-1" d="M160,58.37a28.43,28.43,0,0,1-2.67,7.88,21.52,21.52,0,0,1-4.63,6,20,20,0,0,1-6.47,3.88,23.09,23.09,0,0,1-8.11,1.38,25.47,25.47,0,0,1-9.29-1.69,19.9,19.9,0,0,1-7.46-5,24.3,24.3,0,0,1-4.93-8.3A33.6,33.6,0,0,1,114.69,51a37.85,37.85,0,0,1,1.64-11.58,24.62,24.62,0,0,1,4.7-8.72,20.49,20.49,0,0,1,7.46-5.47,24.4,24.4,0,0,1,9.83-1.91,24.91,24.91,0,0,1,8.6,1.41,20.71,20.71,0,0,1,6.65,3.89A18.83,18.83,0,0,1,158,34.49a20.94,20.94,0,0,1,2,7.19H149.4a11.57,11.57,0,0,0-20.73-4.5l-.07.1a29.31,29.31,0,0,0,0,26.32,10.4,10.4,0,0,0,9.29,4.71,11,11,0,0,0,7.61-2.56,13.53,13.53,0,0,0,3.94-7.38Z"/><path id="Trazado_643" data-name="Trazado 643" class="cls-1" d="M180.92,76.81a21.71,21.71,0,0,1-8.2-1.46A16.75,16.75,0,0,1,162.86,65a23.84,23.84,0,0,1-1.3-8,23.5,23.5,0,0,1,1.34-8.1,16.94,16.94,0,0,1,9.93-10.29,21.56,21.56,0,0,1,8.07-1.41,21,21,0,0,1,7.95,1.41,16.83,16.83,0,0,1,9.83,10.21A23.86,23.86,0,0,1,200,57a23.54,23.54,0,0,1-1.33,8.15,17.84,17.84,0,0,1-3.83,6.23,16.82,16.82,0,0,1-6,4A21.26,21.26,0,0,1,180.92,76.81Zm0-8.34Q190,68.47,190,57t-9.1-11.39q-9.09,0-9.1,11.39t9.1,11.47Z"/><path id="Trazado_644" data-name="Trazado 644" class="cls-1" d="M227.73,75.81V53a8.69,8.69,0,0,0-1.45-5.88,6.61,6.61,0,0,0-5-1.53q-7.73,0-7.72,8.63V75.82h-9.93V38.19h9.5V43.7a12,12,0,0,1,4.66-4.86,15.12,15.12,0,0,1,7.49-1.64,14.71,14.71,0,0,1,5,.8,10.42,10.42,0,0,1,3.94,2.41,11.4,11.4,0,0,1,2.59,3.94,14,14,0,0,1,.95,5.39V75.81Z"/><path id="Trazado_645" data-name="Trazado 645" class="cls-1" d="M263.43,51h9.25V61.74a18.61,18.61,0,0,1-.86,5.69,13.35,13.35,0,0,1-2.76,4.82,13.16,13.16,0,0,1-4.74,3.33,17.46,17.46,0,0,1-6.85,1.22,18.16,18.16,0,0,1-7-1.22,13.3,13.3,0,0,1-4.78-3.29,12.48,12.48,0,0,1-2.72-4.82,19.68,19.68,0,0,1-.84-5.81V28h9.79V38.17h20.8v7h-20.8V60.66a9.75,9.75,0,0,0,1.34,5.55,5,5,0,0,0,4.39,2,5.14,5.14,0,0,0,4.4-1.91,9,9,0,0,0,1.42-5.43Z"/><path id="Trazado_646" data-name="Trazado 646" class="cls-1" d="M277,33.68V24.42h9.92v9.26Zm0,42.13V38.19h9.92V75.81Z"/><path id="Trazado_647" data-name="Trazado 647" class="cls-1" d="M315.49,75.81V53A8.69,8.69,0,0,0,314,47.14a6.6,6.6,0,0,0-5-1.53q-7.72,0-7.72,8.63V75.82h-9.93V38.19h9.5V43.7a12.06,12.06,0,0,1,4.65-4.85A17.07,17.07,0,0,1,318,38,10.54,10.54,0,0,1,322,40.42a11.54,11.54,0,0,1,2.59,3.94,14.2,14.2,0,0,1,1,5.39V75.83Z"/><path id="Trazado_648" data-name="Trazado 648" class="cls-1" d="M339,59.6a10.74,10.74,0,0,0,2.48,6.81,7.59,7.59,0,0,0,5.93,2.52,8.26,8.26,0,0,0,4.31-1.11,5,5,0,0,0,2.41-3.1h10.25a16.53,16.53,0,0,1-6.12,9,17.4,17.4,0,0,1-10.4,3.14Q329,76.81,329,56.31a23.73,23.73,0,0,1,1.22-7.88,17.09,17.09,0,0,1,3.55-6,15.42,15.42,0,0,1,5.7-3.86,20.8,20.8,0,0,1,7.72-1.34,15.94,15.94,0,0,1,13.2,5.59,26.57,26.57,0,0,1,4.47,16.83Zm15.68-6.27a10.44,10.44,0,0,0-.73-3.63,7.58,7.58,0,0,0-1.72-2.59,6.89,6.89,0,0,0-2.45-1.53,8.31,8.31,0,0,0-2.83-.5,7.06,7.06,0,0,0-5.18,2.16,9.31,9.31,0,0,0-2.49,6.08Z"/><path id="Trazado_649" data-name="Trazado 649" class="cls-1" d="M392.43,75.81V53A8.74,8.74,0,0,0,391,47.14a6.62,6.62,0,0,0-5-1.53q-7.72,0-7.73,8.63V75.82h-9.93V38.19h9.5V43.7a12,12,0,0,1,4.66-4.86A15.13,15.13,0,0,1,390,37.2a14.75,14.75,0,0,1,5,.8,10.42,10.42,0,0,1,3.94,2.41,11.4,11.4,0,0,1,2.59,3.94,14.2,14.2,0,0,1,1,5.39V75.81Z"/><path id="Trazado_650" data-name="Trazado 650" class="cls-1" d="M428.13,51h9.26V61.74a18.32,18.32,0,0,1-.87,5.69,13,13,0,0,1-7.5,8.15,17.38,17.38,0,0,1-6.84,1.22,18.21,18.21,0,0,1-7-1.22,13.47,13.47,0,0,1-4.78-3.29,12.53,12.53,0,0,1-2.71-4.82,19.68,19.68,0,0,1-.84-5.81V28h9.78V38.17h20.8v7h-20.8V60.66a9.83,9.83,0,0,0,1.34,5.55,5,5,0,0,0,4.4,2,5.15,5.15,0,0,0,4.4-1.91,9,9,0,0,0,1.41-5.43Z"/><path id="Trazado_651" data-name="Trazado 651" class="cls-1" d="M464.08,49.58a5.31,5.31,0,0,0-2-3.86,9,9,0,0,0-5-1.11,10.28,10.28,0,0,0-4.35.72,2.48,2.48,0,0,0-1.53,2.41,2.79,2.79,0,0,0,1.53,2.56A20.27,20.27,0,0,0,457.27,52q3.21.91,6.12,1.64a48.19,48.19,0,0,1,5.13,1.57,10.71,10.71,0,0,1,4.58,3.33,9.25,9.25,0,0,1,1.61,5.77,11,11,0,0,1-4.17,9.18,19.57,19.57,0,0,1-12.27,3.29,21.06,21.06,0,0,1-13.35-3.68,11.88,11.88,0,0,1-4.77-9.4h10.24a4.76,4.76,0,0,0,2.07,4.13,9.81,9.81,0,0,0,5.73,1.45,11.5,11.5,0,0,0,4.67-.86,3.05,3.05,0,0,0,2-3,2.88,2.88,0,0,0-1.79-2.83,23.67,23.67,0,0,0-4.25-1.45q-4.74-1.15-7.65-2.07a19.62,19.62,0,0,1-4.89-2.22A9.6,9.6,0,0,1,442.55,53a10.61,10.61,0,0,1-1-4.67,11.59,11.59,0,0,1,.84-4.43,8.52,8.52,0,0,1,2.75-3.56,14.12,14.12,0,0,1,4.94-2.33,27.22,27.22,0,0,1,7.3-.87,19,19,0,0,1,12,3.14,12.24,12.24,0,0,1,4.24,9.25Z"/></g></g><g id="Grupo_491" data-name="Grupo 491"><path id="Trazado_652" data-name="Trazado 652" class="cls-2" d="M24.73,18.88a33.29,33.29,0,0,0,15.54-5.73A37.68,37.68,0,0,1,57.62,6.78a44.43,44.43,0,0,1,7.65-.37A42.74,42.74,0,0,0,8.41,17.3,33.18,33.18,0,0,0,24.73,18.88Z"/><path id="Trazado_653" data-name="Trazado 653" class="cls-3" d="M28.84,33.29a27.69,27.69,0,0,0,14.82-2,35.07,35.07,0,0,1,32.88,3.67,29,29,0,0,0,8.77,4.27A42.51,42.51,0,0,0,72.77,12.36a32.09,32.09,0,0,0-14.6-1A33.28,33.28,0,0,0,42.63,17,37.46,37.46,0,0,1,25.28,23.4a46,46,0,0,1-6,.41A37.85,37.85,0,0,1,6.88,21.62l-1.12-.35c-.37.63-.72,1.27-1,1.91a33,33,0,0,1,10.12,4.87A27.7,27.7,0,0,0,28.84,33.29Z"/><path id="Trazado_654" data-name="Trazado 654" class="cls-4" d="M24.73,58.21a33.17,33.17,0,0,0,15.54-5.72A41.54,41.54,0,0,1,76,47.9a36,36,0,0,0,9.12,1.93c.18-1.45.3-2.9.34-4.36a32.12,32.12,0,0,1-11.4-5.18,30.5,30.5,0,0,0-28.81-3.21,35.07,35.07,0,0,1-32.88-3.66A28.33,28.33,0,0,0,2.86,29,42.84,42.84,0,0,0,1.31,54.84a49.43,49.43,0,0,1,7,1.77A33.24,33.24,0,0,0,24.73,58.21Z"/><path id="Trazado_655" data-name="Trazado 655" class="cls-5" d="M44.3,75.77A35.09,35.09,0,0,1,11.41,72.1,42.51,42.51,0,0,0,7.1,69.54a42.73,42.73,0,0,0,59.21,12,44.16,44.16,0,0,0,4.92-3.8A26.51,26.51,0,0,0,59.1,73.74,27.7,27.7,0,0,0,44.3,75.77Z"/><path id="Trazado_656" data-name="Trazado 656" class="cls-6" d="M74.66,53.16a37,37,0,0,0-32,4.1,37.62,37.62,0,0,1-17.36,6.38,47.8,47.8,0,0,1-6,.41,38,38,0,0,1-12.41-2.2c-1.33-.43-2.63-.81-4-1.15.27.67.54,1.33.84,2A32.72,32.72,0,0,1,13.9,67.57a30.5,30.5,0,0,0,28.81,3.21,32,32,0,0,1,16.9-2.29,31.11,31.11,0,0,1,14.94,5.28A42.82,42.82,0,0,0,84.3,55.25,41.28,41.28,0,0,1,74.66,53.16Z"/></g><g id="Grupo_493" data-name="Grupo 493"><g id="Grupo_492" data-name="Grupo 492"><path id="Trazado_657" data-name="Trazado 657" class="cls-1" d="M263,98.44h-1v-10H265a3.82,3.82,0,0,1,2.39.66,2.33,2.33,0,0,1,.87,2,2.49,2.49,0,0,1-.66,1.75,2.78,2.78,0,0,1-1.89.82l2.87,4.73h-1.23l-2.73-4.63h-1.69Zm0-5.56h1.8a4.07,4.07,0,0,0,1.15-.14,2.19,2.19,0,0,0,.75-.37,1.47,1.47,0,0,0,.41-.55,2,2,0,0,0,.12-.68,1.89,1.89,0,0,0-.12-.67,1.43,1.43,0,0,0-.41-.56,2.11,2.11,0,0,0-.75-.37,4.1,4.1,0,0,0-1.15-.13H263Z"/><path id="Trazado_658" data-name="Trazado 658" class="cls-1" d="M272.14,97.51h5.33v.93h-6.34v-10h6.17v.93h-5.18V92.8h4.82v.92h-4.82Z"/><path id="Trazado_659" data-name="Trazado 659" class="cls-1" d="M280.14,98.44h-1.2l4.32-10h1l4.32,10h-1.18l-1.1-2.62h-5.09Zm1.47-3.55h4.32l-2.16-5.23Z"/><path id="Trazado_660" data-name="Trazado 660" class="cls-1" d="M291.81,97.51h4.64v.93h-5.66v-10h1Z"/><path id="Trazado_661" data-name="Trazado 661" class="cls-1" d="M304.44,97.51h5.33v.93h-6.35v-10h6.17v.93h-5.18V92.8h4.85v.92h-4.82Z"/><path id="Trazado_662" data-name="Trazado 662" class="cls-1" d="M317.31,90.13a2.16,2.16,0,0,0-1.92-1,2.52,2.52,0,0,0-.77.11,2,2,0,0,0-.69.32,1.73,1.73,0,0,0-.48.56,1.75,1.75,0,0,0-.18.81,1.43,1.43,0,0,0,.38,1.05,2.93,2.93,0,0,0,.94.61,10.53,10.53,0,0,0,1.23.43,5.51,5.51,0,0,1,1.23.51,2.88,2.88,0,0,1,.94.83,2.31,2.31,0,0,1,.38,1.42,2.47,2.47,0,0,1-.29,1.22,2.76,2.76,0,0,1-.76.91,3.71,3.71,0,0,1-1.06.56,3.54,3.54,0,0,1-1.17.19,4.31,4.31,0,0,1-1.73-.34A3.26,3.26,0,0,1,312,97.22l.92-.66a2.4,2.4,0,0,0,.9.86,2.71,2.71,0,0,0,1.36.33,2.46,2.46,0,0,0,.76-.12,2.38,2.38,0,0,0,.67-.35,1.81,1.81,0,0,0,.5-.57,1.5,1.5,0,0,0,.2-.77,1.64,1.64,0,0,0-.22-.87,1.86,1.86,0,0,0-.58-.57,3.34,3.34,0,0,0-.81-.38l-.94-.32c-.32-.1-.63-.21-.94-.34A3.31,3.31,0,0,1,313,93a2.2,2.2,0,0,1-.58-.76,2.63,2.63,0,0,1-.21-1.14,2.56,2.56,0,0,1,1-2.14,3.13,3.13,0,0,1,1-.52,4.26,4.26,0,0,1,1.18-.17,4.44,4.44,0,0,1,1.53.27,3.3,3.3,0,0,1,1.3.94Z"/><path id="Trazado_663" data-name="Trazado 663" class="cls-1" d="M324.46,98.44h-1v-9h-3.33v-.93h7.67v.93h-3.33Z"/><path id="Trazado_664" data-name="Trazado 664" class="cls-1" d="M329.05,98.44h-1.18l4.32-10h1l4.31,10H336.3l-1.09-2.62h-5.09Zm1.48-3.55h4.31l-2.15-5.23Z"/><path id="Trazado_665" data-name="Trazado 665" class="cls-1" d="M342,98.44h-1v-9H337.6v-.93h7.68v.93H342Z"/><path id="Trazado_666" data-name="Trazado 666" class="cls-1" d="M348.68,97.51H354v.93h-6.34v-10h6.18v.93h-5.18V92.8h4.82v.92h-4.82Z"/><path id="Trazado_667" data-name="Trazado 667" class="cls-1" d="M361.46,88.48h3.31a5.9,5.9,0,0,1,1.86.31,5,5,0,0,1,1.69.94,4.75,4.75,0,0,1,1.22,1.56,4.89,4.89,0,0,1-1.22,5.9,5,5,0,0,1-1.69.93,5.91,5.91,0,0,1-1.86.32h-3.31Zm1,9h2a5.14,5.14,0,0,0,2-.35,4,4,0,0,0,1.39-.91,3.55,3.55,0,0,0,.82-1.3,4.27,4.27,0,0,0,0-3,3.68,3.68,0,0,0-.82-1.3,4.29,4.29,0,0,0-1.39-.91,5.33,5.33,0,0,0-2-.35h-2Z"/><path id="Trazado_668" data-name="Trazado 668" class="cls-1" d="M373.87,97.51h5.33v.93h-6.34v-10H379v.93h-5.18V92.8h4.83v.92h-4.83Z"/><path id="Trazado_669" data-name="Trazado 669" class="cls-1" d="M384.94,96.92h0l3.26-8.44h1.1l-3.89,10h-1l-3.78-10h1.13Z"/><path id="Trazado_670" data-name="Trazado 670" class="cls-1" d="M392.49,97.51h5.32v.93h-6.34v-10h6.17v.93h-5.18V92.8h4.83v.92h-4.83Z"/><path id="Trazado_671" data-name="Trazado 671" class="cls-1" d="M401.68,97.51h4.63v.93h-5.65v-10h1Z"/><path id="Trazado_672" data-name="Trazado 672" class="cls-1" d="M418.23,93.46a5.32,5.32,0,0,1-.39,2.09,4.93,4.93,0,0,1-2.73,2.74,5.56,5.56,0,0,1-4.13,0,4.93,4.93,0,0,1-2.73-2.74,5.72,5.72,0,0,1,0-4.19A4.93,4.93,0,0,1,411,88.62a5.66,5.66,0,0,1,4.13,0,4.93,4.93,0,0,1,2.73,2.74A5.4,5.4,0,0,1,418.23,93.46Zm-1.09,0a4.83,4.83,0,0,0-.28-1.64,4.14,4.14,0,0,0-.81-1.37,3.87,3.87,0,0,0-1.29-.94,4.35,4.35,0,0,0-3.43,0,3.81,3.81,0,0,0-1.3.94,4.32,4.32,0,0,0-.81,1.37,5,5,0,0,0,0,3.28,4.32,4.32,0,0,0,.81,1.37,3.81,3.81,0,0,0,1.3.94,4.35,4.35,0,0,0,3.43,0,3.87,3.87,0,0,0,1.29-.94,4.14,4.14,0,0,0,.81-1.37A4.83,4.83,0,0,0,417.14,93.46Z"/><path id="Trazado_673" data-name="Trazado 673" class="cls-1" d="M421.1,88.48H424a3.87,3.87,0,0,1,2.4.66,2.72,2.72,0,0,1,.16,3.84c-.05.06-.11.11-.16.16a3.86,3.86,0,0,1-2.4.67h-1.88v4.63h-1Zm1,4.4h1.63a4.07,4.07,0,0,0,1.15-.14,2.11,2.11,0,0,0,.75-.37,1.47,1.47,0,0,0,.41-.55,1.78,1.78,0,0,0,.12-.68,1.69,1.69,0,0,0-.12-.67,1.43,1.43,0,0,0-.41-.56,2.11,2.11,0,0,0-.75-.37,4.06,4.06,0,0,0-1.15-.13h-1.63Z"/><path id="Trazado_674" data-name="Trazado 674" class="cls-1" d="M434.92,96.58l3.36-8.1h1.55v10h-1V89.83h0l-3.6,8.61h-.53l-3.6-8.61h0v8.61h-1v-10h1.54Z"/><path id="Trazado_675" data-name="Trazado 675" class="cls-1" d="M444.38,97.51h5.33v.93h-6.34v-10h6.17v.93h-5.17V92.8h4.82v.92h-4.82Z"/><path id="Trazado_676" data-name="Trazado 676" class="cls-1" d="M459.74,96.92h0V88.48h1v10h-1.26l-5.94-8.52h0v8.52h-1v-10h1.27Z"/><path id="Trazado_677" data-name="Trazado 677" class="cls-1" d="M467.53,98.44h-1v-9h-3.33v-.93h7.67v.93h-3.33Z"/></g></g></g></g></svg>