<svg xmlns="http://www.w3.org/2000/svg" viewBox="0 0 631.9 122.25"><defs><style>.cls-1{fill:#e15344;}.cls-2{fill:#b7b1a5;}</style></defs><g id="Capa_2" data-name="Capa 2"><g id="Layer_2" data-name="Layer 2"><path class="cls-1" d="M162.72,71v51.24H137.28V.74h86.56V22H162.72V49.6h53.44V71Z"/><path class="cls-1" d="M230.8,122.25V61.56h22v60.69Z"/><path class="cls-1" d="M262.79,122.25V39h20.66v10a27.23,27.23,0,0,1,5.67-6.61,25,25,0,0,1,6.1-3.64,23.32,23.32,0,0,1,6.35-1.6,61.76,61.76,0,0,1,6.6-.34h2.88V59.27a36.84,36.84,0,0,0-6.1-.51q-20.15,0-20.14,20.15v43.34Z"/><path class="cls-1" d="M332.21,84.16q.51,9.48,5.51,15.07a16.75,16.75,0,0,0,13.12,5.58,18.52,18.52,0,0,0,9.57-2.45,11.13,11.13,0,0,0,5.33-6.86h22.69q-3.9,12.87-13.55,19.81t-23,6.94q-41.64,0-41.65-45.38a52.7,52.7,0,0,1,2.71-17.43,37.65,37.65,0,0,1,7.87-13.38,34,34,0,0,1,12.62-8.55,45.94,45.94,0,0,1,17.1-3q19.31,0,29.21,12.36t9.9,37.25Zm34.71-13.89a23.26,23.26,0,0,0-1.6-8,16.94,16.94,0,0,0-3.81-5.76,15.23,15.23,0,0,0-5.42-3.38,18.16,18.16,0,0,0-6.27-1.1,15.61,15.61,0,0,0-11.43,4.82q-4.81,4.83-5.5,13.46Z"/><path class="cls-1" d="M450.56,122.25V71.8q0-9.66-3.21-13t-11-3.39q-17.1,0-17.1,19.13v47.75h-22V39h21V51.14a26.71,26.71,0,0,1,10.32-10.75q6.43-3.64,16.6-3.64a33.17,33.17,0,0,1,11,1.77,23.39,23.39,0,0,1,8.72,5.34,25.52,25.52,0,0,1,5.76,8.72,31.3,31.3,0,0,1,2.12,11.94v57.73Z"/><path class="cls-1" d="M479.52,122.25V105.32L522,56.39H482.4V39h67.72V56.73l-42.5,47.57h43.69v18Z"/><path class="cls-1" d="M574.5,84.16Q575,93.64,580,99.23a16.75,16.75,0,0,0,13.12,5.58,18.46,18.46,0,0,0,9.56-2.45A11.11,11.11,0,0,0,608,95.5h22.69q-3.9,12.87-13.55,19.81t-23,6.94q-41.64,0-41.65-45.38a52.7,52.7,0,0,1,2.71-17.43,37.65,37.65,0,0,1,7.87-13.38,34,34,0,0,1,12.62-8.55,45.91,45.91,0,0,1,17.1-3q19.31,0,29.21,12.36t9.9,37.25Zm34.71-13.89a23.26,23.26,0,0,0-1.6-8,17.09,17.09,0,0,0-3.81-5.76,15.23,15.23,0,0,0-5.42-3.38,18.16,18.16,0,0,0-6.27-1.1,15.61,15.61,0,0,0-11.43,4.82q-4.81,4.83-5.5,13.46Z"/><rect class="cls-1" x="230.8" y="38.78" width="22.01" height="17.53"/><rect class="cls-2" x="351.76" y="17.24" width="279.71" height="1.56"/><path class="cls-2" d="M238.9,2h-6.26V.47h14.24V2h-6.27V18.79H238.9Z"/><path class="cls-2" d="M254.2,9.63a10.51,10.51,0,0,1,.7-3.86,9.47,9.47,0,0,1,1.94-3,9,9,0,0,1,3-2,10.63,10.63,0,0,1,7.69,0,9,9,0,0,1,3,2,9.14,9.14,0,0,1,1.94,3,10.31,10.31,0,0,1,.7,3.86,10.36,10.36,0,0,1-.7,3.87,9.13,9.13,0,0,1-1.94,3.06,8.75,8.75,0,0,1-3,2,10.77,10.77,0,0,1-7.69,0,8.85,8.85,0,0,1-3-2,9.46,9.46,0,0,1-1.94-3.06A10.57,10.57,0,0,1,254.2,9.63Zm1.71,0a8.93,8.93,0,0,0,.55,3.18A7.58,7.58,0,0,0,258,15.38a7.3,7.3,0,0,0,2.45,1.71,8.67,8.67,0,0,0,6.44,0,7.3,7.3,0,0,0,2.45-1.71,7.58,7.58,0,0,0,1.55-2.57,9.16,9.16,0,0,0,.55-3.18,9.16,9.16,0,0,0-.55-3.18,7.58,7.58,0,0,0-1.55-2.57,7.3,7.3,0,0,0-2.45-1.71,8.67,8.67,0,0,0-6.44,0A7.3,7.3,0,0,0,258,3.88a7.58,7.58,0,0,0-1.55,2.57A8.93,8.93,0,0,0,255.91,9.63Z"/><path class="cls-2" d="M282.68.47h4.82c.24,0,.57,0,1,0a10.24,10.24,0,0,1,1.35.16,7.73,7.73,0,0,1,1.47.41,4.28,4.28,0,0,1,1.35.83,4.41,4.41,0,0,1,1,1.37,4.73,4.73,0,0,1,.39,2,4.67,4.67,0,0,1-.45,2.18,4.35,4.35,0,0,1-1.14,1.38,4.79,4.79,0,0,1-1.52.79,10.14,10.14,0,0,1-1.58.36l5.34,8.8h-1.94l-5.16-8.69h-3.18v8.69h-1.71Zm1.71,8.07H288a6.08,6.08,0,0,0,2.19-.33,3.69,3.69,0,0,0,1.31-.83,2.6,2.6,0,0,0,.63-1.06,3.46,3.46,0,0,0,.17-1,3.4,3.4,0,0,0-.17-1,2.63,2.63,0,0,0-.63-1.07,3.68,3.68,0,0,0-1.31-.82A5.85,5.85,0,0,0,288,2h-3.62Z"/><path class="cls-2" d="M303.73.47h4.81c.24,0,.57,0,1,0a9.91,9.91,0,0,1,1.34.16,7.62,7.62,0,0,1,1.48.41,4.13,4.13,0,0,1,1.34.83,4.28,4.28,0,0,1,1,1.37,4.73,4.73,0,0,1,.39,2,4.55,4.55,0,0,1-.46,2.18,4.1,4.1,0,0,1-1.14,1.38,4.74,4.74,0,0,1-1.51.79,10.14,10.14,0,0,1-1.58.36l5.33,8.8h-1.94l-5.15-8.69h-3.18v8.69h-1.71Zm1.71,8.07h3.62a6.08,6.08,0,0,0,2.19-.33,3.79,3.79,0,0,0,1.31-.83,2.6,2.6,0,0,0,.63-1.06,3.81,3.81,0,0,0,.17-1,3.74,3.74,0,0,0-.17-1,2.63,2.63,0,0,0-.63-1.07,3.77,3.77,0,0,0-1.31-.82A5.85,5.85,0,0,0,309.06,2h-3.62Z"/><path class="cls-2" d="M324.77.47H336V2h-9.5V8.54h8.91V10.1h-8.91v7.14h9.92v1.55H324.77Z"/><path class="cls-2" d="M92.37,110.92l-41.83-6.6A24.45,24.45,0,0,1,34.06,93.78L26,81.7,40.27,79a24.38,24.38,0,0,1,19.06,4.4l34,25.27A1.24,1.24,0,0,1,92.37,110.92Z"/><path class="cls-2" d="M98.49,99.94,62.38,77.83a24.38,24.38,0,0,1-11.19-16L48.35,47.55l14.21,3A24.48,24.48,0,0,1,78.49,61.9l21.72,36.34A1.25,1.25,0,0,1,98.49,99.94Z"/><path class="cls-2" d="M108.89,92.49,84,58.22A24.42,24.42,0,0,1,79.85,39.1l2.84-14.24,12,8.22A24.4,24.4,0,0,1,105,49.68l6.11,41.9A1.24,1.24,0,0,1,108.89,92.49Z"/><circle class="cls-2" cx="21.5" cy="101.84" r="4.62"/><circle class="cls-2" cx="37.41" cy="64.74" r="4.62"/><circle class="cls-2" cx="66.12" cy="36.33" r="4.62"/><circle class="cls-2" cx="103.37" cy="21.07" r="4.62"/><path class="cls-2" d="M90.62,121.73a1.17,1.17,0,0,0-.89-1L48.67,110.43a24.42,24.42,0,0,0-19.3,3.22l-12.16,7.93.21.15Z"/><path class="cls-2" d="M122.67,17.13,114.8,29a24.43,24.43,0,0,0-3.4,19.27l10,41.15a1.2,1.2,0,0,0,1.3.93Z"/><path class="cls-2" d="M122.72.41A122.05,122.05,0,0,0,0,121.73H3.56A118.52,118.52,0,0,1,122.72,4Z"/></g></g></svg>