<svg xmlns="http://www.w3.org/2000/svg" viewBox="0 0 203.48 107.86"><defs><style>.cls-1{fill:#1d1d1b;}</style></defs><g id="Capa_2" data-name="Capa 2"><g id="Capa_1-2" data-name="Capa 1"><path class="cls-1" d="M202.93,83.88H.55a.57.57,0,0,0-.55.55A.55.55,0,0,0,.55,85H202.93a.54.54,0,0,0,.55-.53A.55.55,0,0,0,202.93,83.88Z"/><path class="cls-1" d="M14.53,99.66a7.43,7.43,0,0,1-7.86,7.92H1.4V92.07H6.67A7.47,7.47,0,0,1,14.53,99.66ZM2.61,93.21v13.22H6.67a6.62,6.62,0,1,0,0-13.24H2.61Z"/><path class="cls-1" d="M14.53,99.66a7.43,7.43,0,0,1-7.86,7.92H1.4V92.07H6.67A7.47,7.47,0,0,1,14.53,99.66ZM2.61,93.21v13.22H6.67a6.62,6.62,0,1,0,0-13.24H2.61Z"/><path class="cls-1" d="M22.34,99.23h9.1v1.1h-9.1v6.12h9.81v1.15h-11V92.09H31.88v1.12H22.34Z"/><path class="cls-1" d="M22.34,99.23h9.1v1.1h-9.1v6.12h9.81v1.15h-11V92.09H31.88v1.12H22.34Z"/><path class="cls-1" d="M49.26,95.07C48.12,93.24,46.32,93,44.55,93s-4.7.67-4.7,3.15c0,2,2.12,2.43,4.74,2.92,3,.57,6.1,1.1,6.1,4.44,0,3.5-3.55,4.34-6.14,4.34-2.42,0-5.17-1-6.36-3.37l1.06-.54c1,1.88,3.39,2.81,5.3,2.81s5-.54,5-3.27c0-2.33-2.55-2.83-5.1-3.33-2.84-.56-5.74-1.14-5.74-4-.08-3.28,3.34-4.3,5.89-4.3,2.22,0,4.15.35,5.68,2.64Z"/><path class="cls-1" d="M49.26,95.07C48.12,93.24,46.32,93,44.55,93s-4.7.67-4.7,3.15c0,2,2.12,2.43,4.74,2.92,3,.57,6.1,1.1,6.1,4.44,0,3.5-3.55,4.34-6.14,4.34-2.42,0-5.17-1-6.36-3.37l1.06-.54c1,1.88,3.39,2.81,5.3,2.81s5-.54,5-3.27c0-2.33-2.55-2.83-5.1-3.33-2.84-.56-5.74-1.14-5.74-4-.08-3.28,3.34-4.3,5.89-4.3,2.22,0,4.15.35,5.68,2.64Z"/><path class="cls-1" d="M69.51,107.6l-1.71-3.81H58.54l-1.69,3.81H55.58l7-15.51h1.3l7,15.51Zm-2.17-4.93-4.17-9.43L59,102.67Z"/><path class="cls-1" d="M69.51,107.6l-1.71-3.81H58.54l-1.69,3.81H55.58l7-15.51h1.3l7,15.51Zm-2.17-4.93-4.17-9.43L59,102.67Z"/><path class="cls-1" d="M89.1,107.6H87.52l-5.36-5.88H77.92v5.88H76.73V92.09h6.83a4.8,4.8,0,0,1,5.1,4.84c0,2.53-1.64,4.74-5,4.74Zm-11.16-7h5.51c2.69,0,3.9-1.52,3.92-3.7a3.58,3.58,0,0,0-3.79-3.7H77.94Z"/><path class="cls-1" d="M89.1,107.6H87.52l-5.36-5.88H77.92v5.88H76.73V92.09h6.83a4.8,4.8,0,0,1,5.1,4.84c0,2.53-1.64,4.74-5,4.74Zm-11.16-7h5.51c2.69,0,3.9-1.52,3.92-3.7a3.58,3.58,0,0,0-3.79-3.7H77.94Z"/><path class="cls-1" d="M107.44,107.6h-1.58l-5.36-5.88H96.26v5.88H95.07V92.09h6.83A4.8,4.8,0,0,1,107,96.93c0,2.53-1.63,4.74-5,4.74Zm-11.18-7h5.49c2.69,0,3.9-1.52,3.92-3.7a3.58,3.58,0,0,0-3.79-3.7H96.24v7.4Z"/><path class="cls-1" d="M107.44,107.6h-1.58l-5.36-5.88H96.26v5.88H95.07V92.09h6.83A4.8,4.8,0,0,1,107,96.93c0,2.53-1.63,4.74-5,4.74Zm-11.18-7h5.49c2.69,0,3.9-1.52,3.92-3.7a3.58,3.58,0,0,0-3.79-3.7H96.24v7.4Z"/><path class="cls-1" d="M128.34,99.86c0,4.08-2.62,8-7.83,8s-7.83-3.94-7.83-8,2.61-8,7.83-8S128.36,95.68,128.34,99.86Zm-14.47,0c0,3.49,2.23,6.92,6.64,6.92s6.68-3.41,6.68-6.92S125,93,120.51,93,113.85,96.18,113.87,99.85Z"/><path class="cls-1" d="M136.32,92.09v14.38h8.74v1.13h-9.93V92.09Z"/><path class="cls-1" d="M136.32,92.09v14.38h8.74v1.13h-9.93V92.09Z"/><path class="cls-1" d="M152.47,92.09v14.38h8.72v1.13h-9.93V92.09Z"/><path class="cls-1" d="M152.47,92.09v14.38h8.72v1.13h-9.93V92.09Z"/><path class="cls-1" d="M181.91,99.86c0,4.08-2.62,8-7.83,8s-7.81-3.94-7.81-8,2.59-8,7.81-8S181.93,95.68,181.91,99.86Zm-14.47,0c0,3.49,2.23,6.92,6.64,6.92s6.68-3.41,6.68-6.92-2.21-6.9-6.68-6.9S167.42,96.18,167.44,99.85Z"/><path class="cls-1" d="M181.91,99.86c0,4.08-2.62,8-7.83,8s-7.81-3.94-7.81-8,2.59-8,7.81-8S181.93,95.68,181.91,99.86Zm-14.47,0c0,3.49,2.23,6.92,6.64,6.92s6.68-3.41,6.68-6.92-2.21-6.9-6.68-6.9S167.42,96.18,167.44,99.85Z"/><path class="cls-1" d="M199.21,95.07c-1.14-1.83-2.94-2.09-4.71-2.11s-4.69.67-4.69,3.15c0,2,2.12,2.43,4.75,2.92,3,.57,6.1,1.1,6.1,4.44,0,3.5-3.55,4.34-6.14,4.34-2.42,0-5.17-1-6.36-3.37l1.06-.54c.95,1.88,3.38,2.81,5.3,2.81s4.95-.54,4.95-3.27c0-2.33-2.55-2.83-5.1-3.33-2.84-.56-5.75-1.14-5.75-4-.07-3.28,3.35-4.3,5.9-4.3,2.21,0,4.15.35,5.67,2.64Z"/><path class="cls-1" d="M199.21,95.07c-1.14-1.83-2.94-2.09-4.71-2.11s-4.69.67-4.69,3.15c0,2,2.12,2.43,4.75,2.92,3,.57,6.1,1.1,6.1,4.44,0,3.5-3.55,4.34-6.14,4.34-2.42,0-5.17-1-6.36-3.37l1.06-.54c.95,1.88,3.38,2.81,5.3,2.81s4.95-.54,4.95-3.27c0-2.33-2.55-2.83-5.1-3.33-2.84-.56-5.75-1.14-5.75-4-.07-3.28,3.35-4.3,5.9-4.3,2.21,0,4.15.35,5.67,2.64Z"/><polygon class="cls-1" points="48.77 31.41 19.34 31.41 19.34 0.11 4.32 0.11 4.32 77.05 19.34 77.05 19.34 47.03 48.75 47.03 48.75 77.07 63.7 77.07 63.7 0.11 48.77 0.11 48.77 31.41"/><path class="cls-1" d="M117.69,44c0,12.16-5.33,19.14-14.62,19.14-9.89,0-15.56-7-15.56-19.14V.11H72.58V44c0,10.84,3.12,19.8,9,25.92A29.22,29.22,0,0,0,103,78.53c8.73,0,16.09-3,21.3-8.8,5.45-6,8.33-14.93,8.33-25.74V.11h-14.9Z"/><path class="cls-1" d="M197.21,44.11a16.84,16.84,0,0,0-6.42-7.06c4.52-3.18,7-8.12,7-14.17,0-7.54-2.31-13.39-6.88-17.39-4.1-3.59-10-5.49-17-5.49H141.56V77h32.35c16.88,0,25.8-8,25.8-23.19A22.45,22.45,0,0,0,197.21,44.11Zm-23.3-14.29H156.4V15.41h17.51c7.06,0,8.93,5.09,8.93,7.79C182.84,27.59,179.83,29.82,173.91,29.82Zm-17.51,15h17.51c4.46,0,10.9,3.15,10.9,8.84,0,7.21-9.08,7.57-10.9,7.57H156.4Z"/></g></g></svg>