<svg xmlns="http://www.w3.org/2000/svg" viewBox="0 0 450.29 113.95"><defs><style>.cls-1{fill:#cb003c;}.cls-2{fill:#1b1b1a;}</style></defs><g id="Capa_2" data-name="Capa 2"><g id="Capa_1-2" data-name="Capa 1"><path class="cls-1" d="M62.23,55.3c0-4.08,0-8,0-11.91,0-.74.44-.81.92-1L90.48,33c7.28-2.51,14.57-5,21.84-7.56.87-.3,1.14-.26,1.14.77q0,32.42,0,64.82c0,.91-.47,1.12-1.12,1.37L68,109.55c-3.61,1.39-7.22,2.78-10.83,4.2a2,2,0,0,1-1.57.06l-49.08-19c-.14-.06-.26-.15-.6-.32L12,92.4q9.65-3.32,19.27-6.64a2.43,2.43,0,0,1,1.82,0c7.4,2.88,14.81,5.73,22.21,8.61a2.39,2.39,0,0,0,1.91,0q18-7,35.93-13.87a1.39,1.39,0,0,0,1-1.57q0-16.68,0-33.36c0-1.06-.2-1.27-1.25-.9-9.73,3.39-19.49,6.73-29.24,10.09C63.27,55,62.82,55.11,62.23,55.3Z"/><path class="cls-1" d="M107.55,19.43c-7.8,2.69-15.48,5.24-23.09,8a8.2,8.2,0,0,1-6.41-.16c-6.53-2.7-13.17-5.14-19.76-7.72a2.88,2.88,0,0,0-2.25,0q-17.85,6.93-35.72,13.8a1.39,1.39,0,0,0-1.07,1.53q0,16.74,0,33.48c0,1,.15,1.21,1.17.85Q35.2,64.08,50,59c1.26-.44,1.26-.43,1.27.91,0,3.44,0,6.88,0,10.33a1.1,1.1,0,0,1-.88,1.26Q25.68,80,1,88.53c-.86.3-1,.1-1-.71Q0,55.36,0,22.88c0-.91.47-1.11,1.12-1.36l50-19.3c1.73-.67,3.47-1.32,5.19-2A2.07,2.07,0,0,1,58,.16q24.47,9.48,49,18.94C107.08,19.16,107.21,19.25,107.55,19.43Z"/><path class="cls-2" d="M425.54,62.43c-5.09-.12-10.18.23-15.26-.24a20.2,20.2,0,0,1-6.45-1.53c-4.13-1.83-6.14-5.23-6.51-9.53a115.76,115.76,0,0,1,0-19.17c.5-6.06,4.6-9.92,11.1-10.8a49.31,49.31,0,0,1,6.65-.45c6.73,0,13.45,0,20.17,0a28.38,28.38,0,0,1,6,.65c5.88,1.28,8.43,4.27,8.73,10.31.06,1.11.49,2.53-.15,3.23s-2,.18-3.09.19c-2.67,0-5.33,0-8,0-.75,0-1.1-.09-1.14-1-.1-2.07-1.34-3.22-3.57-3.42-1.38-.12-2.78-.14-4.17-.13-4.81,0-9.62-.17-14.43.11-3.32.19-5,1.81-5.28,5.12a60.13,60.13,0,0,0,0,11.54c.32,3.26,1.94,4.91,5.22,5,6,.25,12.08.27,18.12,0,2.85-.14,4.15-1.73,4.17-4.46,0-.79-.21-1-1-1-4.46,0-8.91,0-13.37,0-.89,0-1.24-.16-1.2-1.15.08-2.14.05-4.29,0-6.44,0-.67.18-.87.86-.87q13.25,0,26.49,0c.47,0,.83,0,.81.65-.14,4.73.25,9.46-.24,14.18s-3,7.47-7.85,8.35a65.51,65.51,0,0,1-11.28.72Z"/><path class="cls-2" d="M229.58,62.43c-4.07-.11-9,.23-13.92-.24a18.47,18.47,0,0,1-7.51-2.08c-3.89-2.21-5.34-5.85-5.58-10-.33-5.55-.26-11.12,0-16.68.27-7,4.23-11.28,11.23-12.23a47.74,47.74,0,0,1,6.65-.46c7.24,0,14.48,0,21.72,0a27.7,27.7,0,0,1,7.87,1.1c4.81,1.47,7.41,4.78,8.15,9.66.55,3.59.24,7.22.26,10.83a63.28,63.28,0,0,1-.21,8.92c-.8,5.81-4,9.22-9.8,10.46a39.14,39.14,0,0,1-7.93.72Zm.25-10.53c3.49,0,6.35,0,9.22,0,4.09-.06,5.9-1.42,6.31-5.25a40.21,40.21,0,0,0-.09-10.34,5.23,5.23,0,0,0-4.69-4.81,15,15,0,0,0-2.84-.26c-4.57,0-9.15,0-13.72,0a24.7,24.7,0,0,0-3.21.2c-2.92.37-4.68,1.82-5.17,4.72a35.72,35.72,0,0,0,0,11c.45,3.11,1.72,4.2,4.84,4.58C223.78,52.14,227.13,51.77,229.83,51.9Z"/><path class="cls-2" d="M169.2,62.43c-4.12-.11-9.14.2-14.14-.23a21.91,21.91,0,0,1-4.33-.74c-4-1.18-6.08-3.71-6.39-7.9-.11-1.43,0-2.86-.08-4.29,0-.6.2-.73.75-.72,3.66,0,7.32,0,11,0,.67,0,.76.27.85.81.51,3.16.95,3.7,4.19,3.8,6.12.19,12.24.23,18.36,0,2.6-.11,3.84-1.84,3.32-4.39a2.33,2.33,0,0,0-1.82-1.83,29.15,29.15,0,0,0-7.33-.72c-6-.22-12.08.14-18.11-.43a25.62,25.62,0,0,1-5.94-1.17,6.73,6.73,0,0,1-4.78-5.41,30.64,30.64,0,0,1-.07-10.55,8,8,0,0,1,5.72-6.52,26.34,26.34,0,0,1,8.79-1.35c6.84-.06,13.68,0,20.52,0a28.53,28.53,0,0,1,7.18.89c4.54,1.22,6.68,3.76,7,8.42.08,1.07,0,2.14.08,3.22,0,.56-.07.84-.75.84-3.7,0-7.4,0-11.1,0-.46,0-.75-.05-.73-.63.09-2.53-1.21-3.31-3.71-3.45-5.36-.31-10.73-.09-16.1-.13a9.3,9.3,0,0,0-1.66.14c-2.29.35-3.3,1.68-3,3.85a2.34,2.34,0,0,0,1.81,2.1,20.43,20.43,0,0,0,5.67.57c5.44.08,10.89.05,16.33.18a33.73,33.73,0,0,1,8.35,1.13,8,8,0,0,1,6.24,6.87,30.15,30.15,0,0,1,0,9.85c-.65,4-3.24,6.09-7,6.91a60.5,60.5,0,0,1-12.09.94C174.14,62.45,172.11,62.43,169.2,62.43Z"/><path class="cls-2" d="M346.65,32.38v1.44c0,9,0,18,0,27,0,1-.3,1.22-1.25,1.21-3.46-.06-6.93,0-10.38,0-.77,0-1-.18-1-1q0-19.44,0-38.88c0-.81.25-1,1-1,5.84,0,11.69,0,17.54,0a1.62,1.62,0,0,1,1.47.72Q365,35.66,375.91,49.41c.29.38.59.74.93,1.15.34-.41.18-.86.18-1.26,0-9,0-18,0-26.95,0-1,.29-1.23,1.25-1.21,3.46.06,6.92,0,10.38,0,.77,0,1,.19,1,1q0,19.44,0,38.88c0,.79-.23,1-1,1q-8.83,0-17.66,0a1.62,1.62,0,0,1-1.45-.79q-11-14-22.12-27.92C347.24,33,347.05,32.84,346.65,32.38Z"/><path class="cls-2" d="M265.91,41.43c0-6.44,0-12.88,0-19.32,0-.82.24-1,1-1,3.54,0,7.08.05,10.61,0,.9,0,1,.3,1,1.08,0,9.34,0,18.68,0,28,0,1,.21,1.25,1.22,1.24,8.59,0,17.18,0,25.77,0,1,0,1.17.27,1.15,1.18-.06,2.78,0,5.56,0,8.35,0,.72-.1,1-.94,1q-19.38,0-38.77,0c-.8,0-1-.23-1-1,0-6.52,0-13,0-19.55Z"/><path class="cls-2" d="M312.44,41.58c0-6.44,0-12.87,0-19.31,0-.83.11-1.16,1.07-1.14,3.54.07,7.08.05,10.61,0,.73,0,.93.17.92.92q0,19.49,0,39c0,.84-.3.94-1,.94-3.5,0-7,0-10.49,0-.87,0-1.11-.18-1.11-1.08C312.46,54.45,312.44,48,312.44,41.58Z"/><path class="cls-2" d="M217.85,79.47v2.11c0,5.4,0,10.81,0,16.21,0,1-.31,1.25-1.26,1.2s-1.36,0-1.34-1.14c.06-6.64,0-13.28,0-19.91,0-.78.17-1,1-1.13,2.34-.33,3.66.56,4.85,2.63,3.14,5.51,6.56,10.86,9.89,16.26.19.31.29.73.81,1V92.26c0-4.81,0-9.61,0-14.42,0-1.23.69-1,1.35-1s1.25-.08,1.24,1q-.07,10.08,0,20.15c0,.8-.27.88-1,1-2.35.39-3.66-.56-4.85-2.61-3.13-5.42-6.54-10.68-9.83-16-.21-.34-.43-.66-.65-1Z"/><path class="cls-2" d="M291,89.05c2.87.6,3.33,2.47,3.27,4.67,0,1.39-.05,2.79,0,4.18,0,.78-.13,1.12-1,1.08-1.54-.06-1.52,0-1.55-1.58a29.65,29.65,0,0,0-.12-4.52c-.29-1.77-.88-2.53-2.67-2.63-2.78-.17-5.56-.09-8.35-.12-.74,0-.53.55-.53.93,0,2.31-.08,4.62,0,6.92,0,1.34-.81.92-1.47,1s-1.19,0-1.18-1c.05-6.68,0-13.35,0-20,0-.78.12-1.1,1-1.09,3.53.07,7.08-.08,10.61.1,3.9.2,5.16,1.57,5.52,5.42a12.61,12.61,0,0,1-.22,3.68C294.06,87.66,293,88.65,291,89.05Zm-5.93-9.92c-1.63,0-3,0-4.33,0-.45,0-.73,0-.72.61,0,2.5,0,5,0,7.5,0,.38,0,.71.54.69,3-.1,5.95.23,8.91-.23a2.59,2.59,0,0,0,2.32-2.21,13,13,0,0,0,.11-4,2.28,2.28,0,0,0-2-2.14A33.78,33.78,0,0,0,285.11,79.13Z"/><path class="cls-2" d="M395.74,89.06c2.74.6,3.26,2.43,3.22,4.65,0,1.47,0,2.94,0,4.41,0,.67-.17.95-.86.85a2.89,2.89,0,0,0-.83,0c-.72.1-1-.15-.94-.91.05-1.55,0-3.1,0-4.65-.08-2.17-1.08-3.21-3.26-3.26-2.55-.06-5.09,0-7.64,0-.69,0-.76.31-.76.87,0,2.3-.08,4.61,0,6.91.07,1.26-.65,1-1.38,1.08s-1.23-.12-1.22-1.13c0-6.64,0-13.28,0-19.92,0-.54-.16-1.11.77-1.08,3.78.09,7.56-.14,11.33.12,3.26.22,4.88,1.94,4.95,5.22a15.18,15.18,0,0,1-.14,3.56C398.61,87.71,398,88.43,395.74,89.06Zm-6-9.93c-1.64,0-3,0-4.34,0-.51,0-.79,0-.79.69,0,2.46,0,4.92,0,7.38,0,.47.08.75.65.73,2.85-.1,5.71.2,8.56-.2A2.68,2.68,0,0,0,396.55,85a28.3,28.3,0,0,0,0-3.32,2.19,2.19,0,0,0-2-2.3C392.91,78.92,391.19,79.24,389.78,79.13Z"/><path class="cls-2" d="M246.8,76.77a18.45,18.45,0,0,1,4.39.2c3.06.66,3.62,3.1,3.58,5.51,0,.38-.19.47-.52.46s-1,0-1.43,0-.62-.19-.66-.67c-.26-2.7-.63-3.09-3.34-3.31a22.81,22.81,0,0,0-5.35.16,2.34,2.34,0,0,0-2.27,2.56c0,.08,0,.15,0,.23-.15,3.6.63,4.45,4.23,4.57a39.15,39.15,0,0,1,6.4.48,3.67,3.67,0,0,1,3.13,3.16,13.43,13.43,0,0,1-.08,5.43,4.08,4.08,0,0,1-3.71,3.34,28.83,28.83,0,0,1-8.55,0,5.11,5.11,0,0,1-4.07-6.52c.08-.29.2-.34.46-.38,1.67-.28,2,0,2.16,1.63.23,2.57.64,3,3.28,3.2a31.62,31.62,0,0,0,5.59-.07,2.4,2.4,0,0,0,2.43-2.31,5.85,5.85,0,0,0,.12-.71c.25-4.21-.65-4.75-4.08-4.85-1.94-.06-3.88-.22-5.81-.45-2.6-.32-3.77-1.56-4.06-4.17a12,12,0,0,1,.23-3.91c.5-2.23,2-3.37,4.85-3.58C244.73,76.7,245.77,76.77,246.8,76.77Z"/><path class="cls-2" d="M377.71,88c0,1.67.05,3.34,0,5-.12,3.91-1.7,5.74-5.54,6.07A28.86,28.86,0,0,1,365,99c-2.58-.42-4.19-1.82-4.46-4.37a64.82,64.82,0,0,1,0-13.43c.25-2.38,1.67-3.73,4.07-4.18a26.47,26.47,0,0,1,8.19-.11c3.32.41,4.74,2.21,4.86,5.66.06,1.83,0,3.66,0,5.48Zm-14.82-.14c.15,2.11-.21,4.27.24,6.39A2.8,2.8,0,0,0,366,96.78a32.74,32.74,0,0,0,5.94,0c2-.17,3-1.07,3.15-3a85.76,85.76,0,0,0,0-11.78,2.76,2.76,0,0,0-2.74-2.89,24.62,24.62,0,0,0-6.53,0,2.71,2.71,0,0,0-2.67,2.57C362.71,83.7,363,85.77,362.89,87.86Z"/><path class="cls-2" d="M210.9,87.94c0,1.87.07,3.74,0,5.6-.15,3.26-1.66,4.94-4.86,5.44a26.13,26.13,0,0,1-7,.08c-3.74-.42-5.25-2-5.38-5.84s-.08-7.46.08-11.19c.13-3.19,1.51-4.68,4.67-5.16a27.35,27.35,0,0,1,7.72,0c3.19.43,4.62,2.12,4.77,5.37.09,1.9,0,3.81,0,5.71Zm-14.8,0c.16,2-.18,4.06.21,6.11a2.87,2.87,0,0,0,3,2.69,34.77,34.77,0,0,0,5.95,0c1.8-.15,2.88-1,3-2.77a82.12,82.12,0,0,0,0-12.25,2.67,2.67,0,0,0-2.68-2.68,24.62,24.62,0,0,0-6.53,0c-1.73.22-2.39,1-2.7,2.66C195.94,83.79,196.25,85.86,196.1,88Z"/><path class="cls-2" d="M173,87.78c0-1.71,0-3.42,0-5.12A5.42,5.42,0,0,1,178,77a27.06,27.06,0,0,1,8.66,0,4,4,0,0,1,3.52,3.8c.06.4.08.79.13,1.19.2,1.87-.19,2.2-2.07,1.85-.46-.09-.45-.34-.45-.66,0-3.25-.83-4.3-4.62-4.21a20.2,20.2,0,0,0-5,.41,3,3,0,0,0-2.57,3.12c-.05,3.53-.09,7.07,0,10.6.09,2.59,1.22,3.67,3.77,3.82a35.58,35.58,0,0,0,5.84-.11c1.87-.19,2.66-1.06,2.77-2.93a5.92,5.92,0,0,0,0-1.19c-.14-1,.23-1.24,1.23-1.27,1.16-.05,1.55.29,1.39,1.43-.1.74,0,1.5-.14,2.26a4.22,4.22,0,0,1-3.6,3.75,28,28,0,0,1-8.9.2c-3.14-.39-5-2.79-5-6.1C172.92,91.2,173,89.49,173,87.78Z"/><path class="cls-2" d="M324.05,87.61a42.26,42.26,0,0,0,.18,6c.32,2.16,1.21,3.09,3.39,3.27a34.11,34.11,0,0,0,6.31-.08,2.61,2.61,0,0,0,2.59-2.6c.05-.36.08-.71.1-1.07.06-1.84.12-1.88,1.94-1.68.46,0,.64.2.62.65a33.24,33.24,0,0,1-.22,3.32,4.13,4.13,0,0,1-3.6,3.48,29.32,29.32,0,0,1-8.67.19c-3.13-.36-5-2.43-5.12-5.75-.17-3.61-.16-7.24,0-10.84.15-3.34,1.8-4.94,5.15-5.5a32.79,32.79,0,0,1,7.73-.16c2.65.18,4.09,1.85,4.34,4.65,0,.24,0,.47,0,.71.06,1.61-.48,2-2.09,1.64-.45-.11-.43-.39-.42-.71.08-3.45-1.17-4.24-4.68-4.17-1.31,0-2.61,0-3.92.2-2.44.28-3.54,1.38-3.65,3.85C324,84.51,324.05,86.06,324.05,87.61Z"/><path class="cls-2" d="M402.09,98.88c1.18-3.25,2.36-6.47,3.53-9.69,1.37-3.76,2.75-7.5,4.07-11.27a1.33,1.33,0,0,1,1.51-1.09c2.48.07,2.49,0,3.35,2.31,2.35,6.26,4.68,12.51,7.05,18.76.35.9.17,1-.78,1.1a1.71,1.71,0,0,1-2.09-1.44c-.3-1.09-.44-2.5-1.31-3.1s-2.23-.17-3.38-.18c-2.18,0-4.37,0-6.55,0-.75,0-1.18.19-1.37.94a17.65,17.65,0,0,1-.59,1.68C404.7,99.13,404.7,99.13,402.09,98.88Zm14.75-6.67c-1.64-4.42-3.23-8.7-4.88-13.16-1.55,4.26-3,8.34-4.54,12.41-.29.77.07.76.63.75Z"/><path class="cls-2" d="M316.88,86c0,2.62.06,5.24,0,7.86-.08,3-1.72,4.73-4.73,5.11a31.19,31.19,0,0,1-8,0c-3-.38-4.68-2.07-4.73-5.11-.09-5.4,0-10.8-.06-16.2,0-1.27.89-.68,1.42-.76s1.16-.18,1.15.81c0,4.81,0,9.61,0,14.42,0,3.11,0,4.63,4.36,4.73a48.83,48.83,0,0,0,5-.06c1.93-.15,2.8-1,3-2.87.3-2.77.1-5.56.13-8.33s.06-5.25,0-7.87c0-1.1.65-.86,1.23-.84s1.38-.34,1.35.86c-.07,2.74,0,5.49,0,8.23Z"/><path class="cls-2" d="M350.74,89.05c0,3,0,6,0,8.94,0,.75-.15,1-1,1-1.65,0-1.65,0-1.65-1.63,0-5.72,0-11.44,0-17.16,0-.93-.27-1.12-1.13-1.08-1.74.07-3.5,0-5.24,0-.89,0-.87-.43-.81-1s-.35-1.31.79-1.3q7.69.06,15.38,0c1.1,0,.68.74.72,1.23s.25,1.12-.73,1.08c-1.78-.07-3.58,0-5.36-.05-.95,0-1.09.28-1.08,1.13C350.78,83.17,350.74,86.11,350.74,89.05Z"/><path class="cls-2" d="M264.47,89.14c0-3,0-6,0-9,0-.79-.21-1-1-1-1.79.06-3.58,0-5.36,0-1,0-.78-.57-.73-1.08s-.38-1.23.71-1.22c5.13,0,10.25,0,15.38,0,1.11,0,.59.8.65,1.27s.25,1.12-.66,1a4.21,4.21,0,0,0-.71,0,49,49,0,0,0-5.68.13c0,1.89-.08,3.79-.08,5.69,0,4.33-.06,8.66,0,13,0,1.15-.53,1.07-1.28,1s-1.37.2-1.33-1C264.54,95,264.47,92.08,264.47,89.14Z"/></g></g></svg>